<?xml version="1.0" encoding="UTF-8"?>
<!DOCTYPE svg PUBLIC "-//W3C//DTD SVG 1.1//EN" "http://www.w3.org/Graphics/SVG/1.1/DTD/svg11.dtd">
<!-- Creator: CorelDRAW -->
<svg xmlns="http://www.w3.org/2000/svg" xml:space="preserve" width="189.076mm" height="124.584mm" version="1.1" style="shape-rendering:geometricPrecision; text-rendering:geometricPrecision; image-rendering:optimizeQuality; fill-rule:evenodd; clip-rule:evenodd"
viewBox="0 0 18906.54 12457.64"
 xmlns:xlink="http://www.w3.org/1999/xlink"
 xmlns:xodm="http://www.corel.com/coreldraw/odm/2003">
 <defs>
  <style type="text/css">
   <![CDATA[
    .fil0 {fill:#4B4B4D;fill-rule:nonzero}
    .fil1 {fill:#0543EC;fill-rule:nonzero}
   ]]>
  </style>
 </defs>
 <g id="Слой_x0020_1">
  <metadata id="CorelCorpID_0Corel-Layer"/>
  <g id="_1753489238304">
   <path class="fil0" d="M2224.54 7869.38l-1574.52 0 -339.15 754.96 -310.87 0 1291.93 -2826.1 294.73 0 1291.93 2826.1 -314.94 0 -339.12 -754.96zm-109 -242.26l-678.27 -1518.02 -678.24 1518.02 1356.51 0zm3161.22 997.21l-645.98 -908.39c-72.65,8.07 -148.04,12.1 -226.08,12.1l-759 0 0 896.29 -298.75 0 0 -2826.1 1057.75 0c360.65,0 643.27,86.14 847.81,258.39 204.58,172.26 306.83,409.09 306.83,710.57 0,220.68 -55.83,407.08 -167.54,559.16 -111.68,152.04 -271.15,261.72 -478.41,329.01l690.38 968.96 -327.01 0zm-880.14 -1150.61c279.9,0 493.91,-61.94 641.92,-185.72 148.04,-123.83 222.08,-297.44 222.08,-520.8 0,-228.8 -74.04,-404.42 -222.08,-526.88 -148.01,-122.47 -362.02,-183.69 -641.92,-183.69l-750.92 0 0 1417.09 750.92 0zm2377.98 -1417.09l-993.18 0 0 -258.39 2285.12 0 0 258.39 -993.17 0 0 2567.7 -298.76 0 0 -2567.7zm-4332.05 4963.73l286.65 0 0 1077.97c-131.9,115.72 -287.97,204.55 -468.34,266.43 -180.32,61.94 -370.08,92.86 -569.23,92.86 -282.61,0 -536.95,-61.9 -763.07,-185.72 -226.08,-123.79 -403.73,-295.36 -532.91,-514.73 -129.18,-219.37 -193.79,-464.98 -193.79,-736.82 0,-271.82 64.61,-517.44 193.79,-736.81 129.18,-219.37 306.83,-390.95 532.91,-514.73 226.12,-123.83 481.8,-185.72 767.11,-185.72 215.33,0 413.16,34.32 593.49,102.92 180.32,68.65 332.4,170.26 456.18,304.83l-185.72 189.76c-223.36,-220.72 -507.33,-331.08 -851.85,-331.08 -228.79,0 -435.33,50.47 -619.73,151.39 -184.36,100.93 -329.01,240.91 -433.97,419.92 -104.96,178.97 -157.47,378.8 -157.47,599.52 0,220.73 52.51,419.88 157.47,597.53 104.96,177.65 248.94,317.58 431.97,419.87 183.01,102.29 388.91,153.44 617.7,153.44 290.68,0 536.95,-72.69 738.81,-218.05l0 -952.78zm2902.81 658.1l-1574.51 0 -339.16 754.95 -310.87 0 1291.94 -2826.1 294.72 0 1291.93 2826.1 -314.94 0 -339.12 -754.95zm-108.99 -242.27l-678.28 -1518.01 -678.23 1518.01 1356.51 0zm1231.4 -1828.88l298.76 0 0 2567.7 1582.59 0 0 258.39 -1881.35 0 0 -2826.1zm2377.97 0l298.76 0 0 2567.7 1582.59 0 0 258.39 -1881.35 0 0 -2826.1zm4376.41 2567.7l0 258.39 -1998.42 0 0 -2826.1 1937.89 0 0 258.4 -1639.12 0 0 1005.28 1461.47 0 0 254.34 -1461.47 0 0 1049.68 1699.66 0zm2632.35 258.39l-645.99 -908.39c-72.65,8.08 -148.04,12.11 -226.08,12.11l-758.99 0 0 896.28 -298.76 0 0 -2826.1 1057.75 0c360.65,0 643.27,86.15 847.81,258.4 204.58,172.26 306.83,409.09 306.83,710.56 0,220.69 -55.82,407.09 -167.54,559.17 -111.68,152.03 -271.15,261.71 -478.41,329l690.38 968.96 -327 0zm-880.14 -1150.6c279.89,0 493.91,-61.94 641.91,-185.72 148.04,-123.83 222.08,-297.44 222.08,-520.81 0,-228.8 -74.04,-404.41 -222.08,-526.87 -148,-122.47 -362.02,-183.69 -641.91,-183.69l-750.92 0 0 1417.09 750.92 0zm2797.85 173.57l0 977.03 -294.73 0 0 -977.03 -1130.42 -1849.06 318.93 0 968.96 1586.67 968.92 -1586.67 298.76 0 -1130.42 1849.06z"/>
   <polygon class="fil1" points="11654.89,8624.35 11654.89,0 18906.54,8543.04 18714.27,8705.64 11907.24,686.37 11907.24,8624.35 "/>
   <path class="fil1" d="M13491.33 5344.02l1570.54 -0.05 0 125.7c0,906.01 -367.27,1726.28 -960.89,2319.96 -593.68,593.63 -1413.95,960.89 -2319.91,960.89 -905.96,0 -1726.23,-367.27 -2319.91,-960.89 -593.63,-593.68 -960.89,-1413.95 -960.89,-2319.91 0,-905.97 367.27,-1726.24 960.89,-2319.92 593.68,-593.67 1413.95,-960.93 2319.91,-960.93 149.39,0 299.89,10.54 450.14,31.33 149.2,20.65 296.79,51.55 441.41,92.36l-68 242.53c-134.28,-37.92 -270.7,-66.53 -407.95,-85.51 -136.09,-18.83 -275.04,-28.37 -415.62,-28.37 -836.29,0 -1593.48,339.04 -2141.48,887.03 -547.99,548.04 -886.98,1305.17 -886.98,2141.48 0,836.29 338.99,1593.43 886.98,2141.47 548.05,548 1305.18,886.99 2141.48,886.99 836.29,0 1593.43,-338.99 2141.48,-886.99 520.43,-520.48 852.26,-1229.5 884.36,-2015.82l-1315.57 0.05 0 -251.4z"/>
  </g>
 </g>
</svg>
